<svg xmlns="http://www.w3.org/2000/svg" viewBox="286.768 2903.9 67.145 48.2"><defs><style>.a,.b{fill:#fff;}.a{stroke:#fff;stroke-width:0.2px;}.b{font-size:14px;font-family:Helvetica-Bold, Helvetica;font-weight:700;}</style></defs><g transform="translate(0 1.5)"><path class="a" d="M6.462,63.129V97.12L.144,107.812a1.351,1.351,0,0,0,1.206,1.96H65.577a1.351,1.351,0,0,0,1.357-1.357,1.276,1.276,0,0,0-.206-.713L60.519,97.12V63.129a1.351,1.351,0,0,0-1.357-1.357H7.819A1.351,1.351,0,0,0,6.462,63.129ZM25.4,106.551l.713-1.425h14.72l.7,1.425ZM9.176,64.486H57.833V96.078H9.176V64.486ZM58.34,98.792l5.058,8.266H44.826l-1.919-3.893a1.354,1.354,0,0,0-1.22-.754H25.281a1.354,1.354,0,0,0-1.22.754l-1.933,3.893H3.556l5.112-8.266Z" transform="translate(286.88 2840.728)"/><text class="b" transform="translate(320 2927)"><tspan x="-16.334" y="0">www</tspan></text></g></svg>