<svg xmlns="http://www.w3.org/2000/svg" viewBox="777 3163 55.102 45"><defs><style>.a{fill:#fff;}</style></defs><path class="a" d="M50.695,14.684H42.867L39.193,5.5H15.909l-3.673,9.184H11.02V10.092H5.51v4.592h-1.1A4.411,4.411,0,0,0,0,19.091V46.062A4.443,4.443,0,0,0,4.438,50.5H50.664A4.443,4.443,0,0,0,55.1,46.062V19.091A4.411,4.411,0,0,0,50.695,14.684Zm-41.511,0H7.347V11.929H9.184ZM27.551,46.827A16.531,16.531,0,1,1,44.082,30.3,16.55,16.55,0,0,1,27.551,46.827ZM47.755,25.7a3.673,3.673,0,1,1,3.673-3.673A3.677,3.677,0,0,1,47.755,25.7Z" transform="translate(777 3157.5)"/></svg>