<svg xmlns="http://www.w3.org/2000/svg" viewBox="447 3160 55.546 50"><defs><style>.a{fill:#fff;}</style></defs><g transform="translate(-1)"><path class="a" d="M51.286,41.49,42.6,37.148A2.391,2.391,0,0,1,41.273,35V31.925c.208-.255.427-.545.654-.865a20.805,20.805,0,0,0,2.685-5.272A3.607,3.607,0,0,0,46.727,22.5V18.864a3.625,3.625,0,0,0-.909-2.386V11.642a8.15,8.15,0,0,0-1.9-5.932c-1.867-2.13-4.9-3.21-9.007-3.21S27.769,3.58,25.9,5.709A8.15,8.15,0,0,0,24,11.641v4.835a3.625,3.625,0,0,0-.909,2.386V22.5a3.615,3.615,0,0,0,1.361,2.826A19.08,19.08,0,0,0,27.636,31.9v3.008a2.4,2.4,0,0,1-1.252,2.109l-8.11,4.424A8.2,8.2,0,0,0,14,48.645V52.5H55.819V48.825A8.16,8.16,0,0,0,51.286,41.49Z" transform="translate(447.727 3157.5)"/><path class="a" d="M16.348,40.886l8.11-4.424A1.042,1.042,0,0,0,25,35.55V32.992a20.527,20.527,0,0,1-3.034-6.282,4.961,4.961,0,0,1-1.512-3.574V19.5a4.967,4.967,0,0,1,.909-2.855v-4.3a9.483,9.483,0,0,1,.087-2.177A12.627,12.627,0,0,0,17.273,9.5c-9.445,0-9.995,8.05-10,8.182v4.163a3.165,3.165,0,0,0-.909,2.118V27.1a3.244,3.244,0,0,0,1.192,2.514,13.933,13.933,0,0,0,3.313,5.714v2.494A1.975,1.975,0,0,1,9.8,39.565L3.755,43.358A7.2,7.2,0,0,0,0,49.685v3.452H11.364V49.284A9.56,9.56,0,0,1,16.348,40.886Z" transform="translate(448 3156.864)"/></g></svg>