<svg xmlns="http://www.w3.org/2000/svg" viewBox="942.583 2902 39.417 50.417"><defs><style>.a{fill:#fff;}</style></defs><path class="a" d="M37.046,5H11V55.417H50.417V18.371ZM19.25,16h9.167a.917.917,0,1,1,0,1.833H19.25a.917.917,0,0,1,0-1.833ZM42.167,47.167H19.25a.917.917,0,1,1,0-1.833H42.167a.917.917,0,1,1,0,1.833Zm0-7.333H19.25a.917.917,0,1,1,0-1.833H42.167a.917.917,0,1,1,0,1.833Zm0-7.333H19.25a.917.917,0,0,1,0-1.833H42.167a.917.917,0,0,1,0,1.833Zm0-7.333H19.25a.917.917,0,0,1,0-1.833H42.167a.917.917,0,1,1,0,1.833Zm-6.417-5.5V6.833L48.583,19.667Z" transform="translate(931.583 2897)"/></svg>