<svg xmlns="http://www.w3.org/2000/svg" viewBox="613 2900 55 55"><defs><style>.a{fill:#fff;}</style></defs><path class="a" d="M49,0a6,6,0,0,0-5.274,8.86L33.9,18.689a7.947,7.947,0,0,0-9.8,0l-7.669-7.669A3.947,3.947,0,0,0,17,9a4,4,0,1,0-4,4,3.947,3.947,0,0,0,2.019-.567L22.688,20.1a7.949,7.949,0,0,0,0,9.8L10.024,42.562a5.939,5.939,0,1,0,1.25,1.578L24.1,31.311A7.953,7.953,0,0,0,28,32.93V43.09a6,6,0,1,0,2,0V32.93a7.953,7.953,0,0,0,3.9-1.619l7.669,7.669A3.945,3.945,0,0,0,41,41a4,4,0,1,0,4-4,3.947,3.947,0,0,0-2.019.567L35.312,29.9a7.949,7.949,0,0,0,0-9.8l9.665-9.665A6,6,0,1,0,49,0Z" transform="translate(613 2900)"/></svg>