<svg xmlns="http://www.w3.org/2000/svg" viewBox="38.931 52 243.407 76.038"><defs><style>.a{fill:#45279f;}.b,.c{fill:none;stroke:#45279f;stroke-miterlimit:10;}.b{stroke-width:2px;}</style></defs><g transform="translate(40 53)"><path class="a" d="M1.628,4.38v-20h8.479a5.676,5.676,0,0,1,2.549.577,6.6,6.6,0,0,1,2.014,1.521,7.178,7.178,0,0,1,1.324,2.141,6.439,6.439,0,0,1,.479,2.408,6.941,6.941,0,0,1-.451,2.465,6.843,6.843,0,0,1-1.268,2.127,6.228,6.228,0,0,1-1.972,1.493,5.7,5.7,0,0,1-2.535.563H5.515v6.7ZM5.515-5.733h4.507a2.226,2.226,0,0,0,1.789-.873,3.613,3.613,0,0,0,.718-2.366,3.9,3.9,0,0,0-.225-1.366,3.319,3.319,0,0,0-.592-1.028A2.354,2.354,0,0,0,10.853-12a2.517,2.517,0,0,0-1-.211H5.515ZM23.6-15.62h3.437l7.606,20h-4L28.783-.606H21.8L19.966,4.38h-4ZM28.079-3.338,25.318-11.2,22.445-3.338Zm21.746-8.873H43.431V4.38H39.572V-12.212H33.177V-15.62H49.825ZM66.191.972V4.38H52.3v-20H65.938v3.408H56.191v4.817h8.423V-4.24H56.191V.972Zm6.93-9.408V4.38H69.234v-20h3.014L82.67-2.493v-13.1h3.887V4.38H83.4Zm32.563-3.775H99.29V4.38H95.431V-12.212H89.036V-15.62h16.648Zm0,16.592V.324h3.1V4.38Zm6.789,0v-20h3.887V.972h10.2V4.38Zm22.141-20h3.437l7.606,20h-4L139.8-.606h-6.986L130.98,4.38h-4Zm4.479,12.282L136.332-11.2l-2.873,7.859ZM163.966-.775a4.687,4.687,0,0,1-.507,2.225,4.673,4.673,0,0,1-1.394,1.606,6.527,6.527,0,0,1-2.056.986,8.935,8.935,0,0,1-2.493.338h-9.662v-20h10.7a3.947,3.947,0,0,1,1.887.451A4.712,4.712,0,0,1,161.882-14a5.357,5.357,0,0,1,.915,1.634,5.5,5.5,0,0,1,.324,1.845,5.446,5.446,0,0,1-.732,2.746,4.46,4.46,0,0,1-2.141,1.9,5.142,5.142,0,0,1,2.718,1.817A5.251,5.251,0,0,1,163.966-.775Zm-3.915-.732a2.929,2.929,0,0,0-.183-1.028,2.855,2.855,0,0,0-.493-.859,2.3,2.3,0,0,0-.732-.577,2.049,2.049,0,0,0-.93-.211h-5.972V1.084h5.775a2.534,2.534,0,0,0,1-.2,2.4,2.4,0,0,0,.8-.549,2.634,2.634,0,0,0,.535-.831A2.637,2.637,0,0,0,160.051-1.507ZM151.741-12.3v5.042h5.183A2.306,2.306,0,0,0,158.6-7.93a2.483,2.483,0,0,0,.69-1.859,2.57,2.57,0,0,0-.634-1.831,2.058,2.058,0,0,0-1.563-.676Z" transform="translate(78.372 42.62)"/><path class="b" d="M30.527,74.614C-3.93,56.911.558,22.056,2.053,14.177A1.889,1.889,0,0,1,4,12.681c17,.8,25.232-8.327,27.526-11.319a.841.841,0,0,1,1.346,0c2.244,2.992,10.472,12.117,27.476,11.319a1.889,1.889,0,0,1,1.945,1.5c1.5,7.879,5.984,42.735-28.473,60.437A3.5,3.5,0,0,1,30.527,74.614Z" transform="translate(-1.013 -1.025)"/><path class="c" d="M62.831,80.585,54.3,65.825V56.7h-.549v9.275l8.627,14.91h0a3.1,3.1,0,0,1,.449,1.646c0,1.047-1.1,1.546-2.094,1.546H39.843c-1,0-2.094-.5-2.094-1.546a3.1,3.1,0,0,1,.449-1.646l8.627-14.91V56.7h-.549v9.125l-8.527,14.76A3.353,3.353,0,0,0,37.2,82.53c0,1.2,1.1,2.094,2.593,2.094H60.687c1.5,0,2.593-.848,2.593-2.094A3.371,3.371,0,0,0,62.831,80.585Z" transform="translate(-19.155 -28.938)"/><path class="a" d="M62.688,97.674s.648,0,.748-.3c.15-.648.05-.848-.748-2.144l-.2-.349c-.7-1.1-2.643-4.239-3.59-5.834a6.841,6.841,0,0,1-2.144.4,10.843,10.843,0,0,0-1.247.05,10.085,10.085,0,0,1-3.491-.2c-.3-.1-.748-.3-1.247-.5s-1.446-.6-2.044-.8L43.79,96.377a2.056,2.056,0,0,0-.2.848,1.034,1.034,0,0,1,.1.3h0a4.542,4.542,0,0,0,1.6.15Z" transform="translate(-22.354 -44.63)"/><path class="a" d="M-38.006-40.533a.788.788,0,0,1,.8-.8.787.787,0,0,1,.8.8.787.787,0,0,1-.8.8.686.686,0,0,1-.076,0A.769.769,0,0,1-38.006-40.533Zm1.8-2.294a1,1,0,0,1,1-1,1,1,0,0,1,1,1,1,1,0,0,1-1,1A1,1,0,0,1-36.211-42.827ZM-40-45.67a1.447,1.447,0,0,1,1.445-1.446,1.447,1.447,0,0,1,1.446,1.446,1.447,1.447,0,0,1-1.446,1.446l-.086,0A1.392,1.392,0,0,1-40-45.67Zm1.745-4.887A2.447,2.447,0,0,1-35.811-53a2.447,2.447,0,0,1,2.444,2.444,2.447,2.447,0,0,1-2.444,2.444A2.416,2.416,0,0,1-38.255-50.557Z" transform="translate(67.869 63.858)"/></g></svg>