<svg xmlns="http://www.w3.org/2000/svg" viewBox="362.521 5949 52.796 67.971"><defs><style>.a{fill:#45279f;}</style></defs><path class="a" d="M26.4,67.971a3.985,3.985,0,0,1-2.534-.859,90.468,90.468,0,0,1-11.932-12.43,66.29,66.29,0,0,1-8.2-13A36.4,36.4,0,0,1,0,26.4,26.405,26.405,0,0,1,50.722,16.123,26.236,26.236,0,0,1,52.8,26.4a36.4,36.4,0,0,1-3.729,15.279,66.319,66.319,0,0,1-8.2,13,90.472,90.472,0,0,1-11.932,12.43A3.99,3.99,0,0,1,26.4,67.971Zm0-54.854A13.281,13.281,0,1,0,39.679,26.4,13.3,13.3,0,0,0,26.4,13.118Z" transform="translate(362.521 5949)"/></svg>