<svg xmlns="http://www.w3.org/2000/svg" viewBox="355 2140 30.608 39.67"><defs><style>.a{fill:#333;}.b{fill:#45279f;}</style></defs><g transform="translate(299.018 2140)"><g transform="translate(55.982)"><path class="a" d="M80.292,157.322l.2-.178a.384.384,0,0,0,.081-.081,24.5,24.5,0,0,0,3.367-4.946h.429A2.221,2.221,0,0,0,86.59,149.9v-3.5a2.221,2.221,0,0,0-2.218-2.218h-.478a12.532,12.532,0,0,0-3.659-5.059,3.356,3.356,0,0,1,.542-2.752,1.654,1.654,0,0,0-1.6-2.517,6.76,6.76,0,0,0-4.557,2.339,15.442,15.442,0,0,0-2.364-.461.8.8,0,1,0-.186,1.595,14.189,14.189,0,0,1,2.614.567.81.81,0,0,0,.907-.316,5.085,5.085,0,0,1,3.78-2.121.048.048,0,0,1,.049.024.035.035,0,0,1,0,.049,4.967,4.967,0,0,0-.72,4.055.788.788,0,0,0,.3.6,10.873,10.873,0,0,1,3.578,5.059.8.8,0,0,0,.761.55h1.036a.615.615,0,0,1,.615.615v3.5a.615.615,0,0,1-.615.615h-.979a.806.806,0,0,0-.769.567,19.415,19.415,0,0,1-3.222,4.889l-.178.154a5.388,5.388,0,0,0-1.846,3.821v1.125H72.756v-1.085a.81.81,0,0,0-.267-.6.8.8,0,0,0-.623-.2,15.048,15.048,0,0,1-3.521-.049.784.784,0,0,0-.631.194.794.794,0,0,0-.275.607v1.125H62.817v-.348a7.4,7.4,0,0,0-1.991-4.735,11.784,11.784,0,0,1-2.121-3.213c-.008-.008-.008-.016-.016-.032a9.542,9.542,0,0,1-.826-2.21l-.008-.032c0-.008-.008-.016-.008-.024a8.264,8.264,0,0,1-.259-2.2v-.024a10.611,10.611,0,0,1,.13-1.6.8.8,0,0,0-1.578-.267,10.878,10.878,0,0,0-.154,1.854,9.716,9.716,0,0,0,.324,2.7h0a11.621,11.621,0,0,0,.947,2.525,13.14,13.14,0,0,0,2.412,3.642,5.772,5.772,0,0,1,1.538,3.675v.332a.537.537,0,0,0,.008.105,1.578,1.578,0,0,0,1.562,1.465h4.687a1.572,1.572,0,0,0,1.57-1.57v-.267a16.709,16.709,0,0,0,2.113.032v.235a1.572,1.572,0,0,0,1.57,1.57H77.4a1.572,1.572,0,0,0,1.57-1.57v-1.141A3.887,3.887,0,0,1,80.292,157.322Z" transform="translate(-55.982 -123.002)"/><path class="b" d="M56.819,116.5a6.6,6.6,0,1,0,6.6-6.6A6.6,6.6,0,0,0,56.819,116.5Zm11.591,0a4.994,4.994,0,1,1-4.994-4.994A5,5,0,0,1,68.41,116.5Z" transform="translate(-56.751 -101.004)"/><path class="b" d="M183.814,4.6a4.6,4.6,0,1,0-4.6,4.6A4.6,4.6,0,0,0,183.814,4.6Zm-7.6,0a2.995,2.995,0,1,1,2.995,2.995A3,3,0,0,1,176.214,4.6Z" transform="translate(-165.016)"/></g></g></svg>