<svg xmlns="http://www.w3.org/2000/svg" viewBox="793 2340 34.908 40"><defs><style>.a{fill:#2c2f33;}.b{fill:#333;}.c{fill:#45279f;}</style></defs><g transform="translate(761.8 2340)"><g transform="translate(31.2)"><path class="a" d="M163.039,440.644h-6.308v-1.836a.808.808,0,0,0-1.616,0v1.836h-6.308a.808.808,0,1,0,0,1.616h14.239a.8.8,0,0,0,.808-.808A.817.817,0,0,0,163.039,440.644Z" transform="translate(-138.469 -402.259)"/><path class="b" d="M47.422,120.329a5.154,5.154,0,0,0-3.909,4.227H40.282a2.881,2.881,0,0,1,2.774-2.122.808.808,0,0,0,0-1.616,4.5,4.5,0,0,0-4.431,3.737H32.253a.8.8,0,0,0-1.053.767v4.406a1.856,1.856,0,0,0,1.852,1.852h31.2a1.856,1.856,0,0,0,1.852-1.852V108.252a1.856,1.856,0,0,0-1.852-1.852H55.525a.808.808,0,1,0,0,1.616h8.731a.237.237,0,0,1,.237.237v21.485a.237.237,0,0,1-.237.237h-31.2a.237.237,0,0,1-.237-.237V126.18H61.963a.808.808,0,1,0,0-1.616H58.511a4.5,4.5,0,0,0-4.431-3.737.808.808,0,1,0,0,1.616,2.874,2.874,0,0,1,2.774,2.122H53.64a5.132,5.132,0,0,0-4.6-4.341A5.83,5.83,0,0,0,47.422,120.329Zm1.159,1.485A3.508,3.508,0,0,1,52,124.556H45.162A3.5,3.5,0,0,1,48.581,121.814Z" transform="translate(-31.2 -97.718)"/><path class="b" d="M42.624,107.208a.8.8,0,0,0-.808-.808H33.052a1.856,1.856,0,0,0-1.852,1.852v14.092a.808.808,0,0,0,1.616,0V108.252a.237.237,0,0,1,.237-.237h8.764A.8.8,0,0,0,42.624,107.208Z" transform="translate(-31.2 -97.718)"/><path class="c" d="M172.886,21.787a.8.8,0,0,0,.808-.808V19.421h1.779a.8.8,0,0,0,.808-.808V17.005a2.906,2.906,0,0,0-.449-1.55l-1.248-1.967a1.147,1.147,0,0,1-.18-.628V6.406a4.066,4.066,0,0,0-1-2.668L170.422.277A.8.8,0,0,0,169.81,0h0a.808.808,0,0,0-.612.286l-2.954,3.46a4.11,4.11,0,0,0-.979,2.652v6.414a1.145,1.145,0,0,1-.212.669l-1.33,1.918a2.87,2.87,0,0,0-.522,1.656v1.559a.8.8,0,0,0,.808.808l1.469.008v1.559a.808.808,0,1,0,1.616,0V19.429l.008-.008a.808.808,0,0,0,0-1.616h-2.285v-.751a1.323,1.323,0,0,1,.228-.734l1.33-1.918a2.79,2.79,0,0,0,.5-1.6V6.4a2.477,2.477,0,0,1,.588-1.6l2.366-2.75,2.366,2.742a2.479,2.479,0,0,1,.6,1.608v6.455a2.768,2.768,0,0,0,.432,1.493l1.248,1.967a1.265,1.265,0,0,1,.2.685v.8h-2.171a.8.8,0,0,0-.808.808.788.788,0,0,0,.392.685v1.689A.81.81,0,0,0,172.886,21.787Z" transform="translate(-152.429)"/><path class="a" d="M233.3,226.008v3.484a.83.83,0,0,0,.759.84.811.811,0,0,0,.857-.808v-3.517a.8.8,0,0,0-.808-.808h0A.8.8,0,0,0,233.3,226.008Z" transform="translate(-216.809 -206.824)"/></g></g></svg>