<svg xmlns="http://www.w3.org/2000/svg" viewBox="130.228 2342.749 39.677 37.137"><defs><style>.a{fill:#333;}.b{fill:#45279f;}</style></defs><g transform="translate(129.564 2329.244)"><g transform="translate(0.664 13.506)"><path class="a" d="M0,31.089V47.076a2.139,2.139,0,0,0,2.135,2.135H7.059a2.111,2.111,0,0,0,1.676-.822,4.882,4.882,0,0,0,3.747,1.757h9.774a.8.8,0,0,0,0-1.6H12.482a3.3,3.3,0,0,1-3.3-3.3V31.565c1.877-.677,7.663-3.207,7.663-8.517V17.439A4.294,4.294,0,0,1,20,17.947c.894.661,1.354,1.894,1.354,3.674v6.454a.794.794,0,0,0,.8.8h8.606a3.3,3.3,0,0,1,3.3,3.3v.089L33.931,33a.789.789,0,0,0,.661.911.694.694,0,0,0,.129.008.8.8,0,0,0,.79-.669l.129-.806a.651.651,0,0,0,.008-.129v-.153a4.894,4.894,0,0,0-4.891-4.891H22.949v-5.64c0-2.321-.677-3.989-2.006-4.964-2.111-1.547-5.012-.661-5.133-.62a.8.8,0,0,0-.556.757v6.245c0,4.045-4.593,6.229-6.382,6.922a2.125,2.125,0,0,0-1.813-1.015H2.135A2.139,2.139,0,0,0,0,31.089Zm7.59,0V47.076a.551.551,0,0,1-.54.54H2.135a.551.551,0,0,1-.54-.54V31.089a.551.551,0,0,1,.54-.54H7.059A.549.549,0,0,1,7.59,31.089Z" transform="translate(0 -15.756)"/><path class="b" d="M319.936,263.343a4.881,4.881,0,0,0-4.875,4.875v2.4H313.5a.794.794,0,0,0-.8.8v8.316a.794.794,0,0,0,.8.8h12.884a.794.794,0,0,0,.8-.8v-8.308a.794.794,0,0,0-.8-.8h-1.563v-2.4A4.89,4.89,0,0,0,319.936,263.343Zm-3.28,4.883a3.28,3.28,0,1,1,6.559,0v2.4h-6.559v-2.4Zm8.928,4v6.72H314.3v-6.72Z" transform="translate(-287.503 -243.393)"/></g></g></svg>