<svg xmlns="http://www.w3.org/2000/svg" viewBox="653 2143.865 40 36.335"><defs><style>.a{fill:#333;}.b{fill:#45279f;}</style></defs><g transform="translate(653 2121.415)"><g transform="translate(0 22.45)"><path class="a" d="M17.278,57.977a.8.8,0,0,0-.808-.808H5.2a3.579,3.579,0,0,1-3.575-3.575v-23.3h4.9v3.044a.808.808,0,0,0,1.616,0V30.293h9.737v3.044a.808.808,0,0,0,1.616,0V30.293h4.9v1.592a.808.808,0,1,0,1.616,0v-2.4a.8.8,0,0,0-.808-.808H19.482a6.485,6.485,0,0,0-12.961,0H.808A.8.8,0,0,0,0,29.485V53.595a5.193,5.193,0,0,0,5.191,5.191H16.462A.812.812,0,0,0,17.278,57.977ZM13,24.066a4.884,4.884,0,0,1,4.864,4.611H8.137A4.884,4.884,0,0,1,13,24.066Z" transform="translate(0 -22.45)"/><path class="b" d="M236.656,162.055v.922h-4.448a.8.8,0,0,0-.808.808v14.177a4.155,4.155,0,0,0,4.154,4.154H248.36a4.155,4.155,0,0,0,4.154-4.154V163.785a.8.8,0,0,0-.808-.808h-4.448v-.922a5.3,5.3,0,1,0-10.6,0Zm9.794,5.354a.8.8,0,0,0,.808-.808v-2.008h3.64v13.369a2.541,2.541,0,0,1-2.538,2.538H235.554a2.541,2.541,0,0,1-2.538-2.538V164.593h3.64V166.6a.808.808,0,1,0,1.616,0v-2.008h7.37V166.6A.8.8,0,0,0,246.45,167.409Zm-.808-5.354v.922h-7.37v-.922a3.685,3.685,0,1,1,7.37,0Z" transform="translate(-212.514 -145.789)"/></g></g></svg>