<svg xmlns="http://www.w3.org/2000/svg" viewBox="960 2140 40 40"><defs><style>.a{fill:#333;}.b{fill:#45279f;}</style></defs><g transform="translate(960 2140)"><g transform="translate(0 0)"><path class="a" d="M203.194,346.2a.806.806,0,0,0-.809.809v3.6a3.694,3.694,0,1,0,1.618,0v-3.6A.806.806,0,0,0,203.194,346.2Zm2.076,8.018a2.076,2.076,0,1,1-2.076-2.076h0A2.079,2.079,0,0,1,205.27,354.218Z" transform="translate(-183.194 -317.904)"/><path class="a" d="M203.194,11.7a.806.806,0,0,0,.809-.809v-3.6a3.694,3.694,0,1,0-1.618,0v3.6A.806.806,0,0,0,203.194,11.7Zm-2.076-8.018a2.076,2.076,0,1,1,2.076,2.076h0A2.079,2.079,0,0,1,201.118,3.686Z" transform="translate(-183.194 0)"/><path class="a" d="M350.614,204a3.694,3.694,0,1,0,0-1.618h-3.6a.809.809,0,0,0,0,1.618Zm1.528-.809a2.076,2.076,0,1,1,2.076,2.076,2.079,2.079,0,0,1-2.076-2.076Z" transform="translate(-317.904 -183.194)"/><path class="a" d="M0,203.194A3.69,3.69,0,0,0,7.291,204h3.6a.809.809,0,0,0,0-1.618h-3.6A3.69,3.69,0,0,0,0,203.194Zm5.762,0a2.076,2.076,0,1,1-2.076-2.076A2.079,2.079,0,0,1,5.762,203.194Z" transform="translate(0 -183.194)"/><path class="a" d="M313.814,313.8a.8.8,0,0,0,0,1.144l2.55,2.55a3.686,3.686,0,0,0,5.721,4.577,3.689,3.689,0,0,0-4.577-5.729l-2.55-2.55A.811.811,0,0,0,313.814,313.8Zm4.2,4.2h0a2.082,2.082,0,1,1-.6,1.471A2.018,2.018,0,0,1,318.015,318Z" transform="translate(-287.946 -287.934)"/><path class="a" d="M64.793,59.579a3.688,3.688,0,1,0-.638,5.721l2.55,2.55a.809.809,0,0,0,1.144,0,.8.8,0,0,0,0-1.144l-2.55-2.55a3.643,3.643,0,0,0,.572-1.97A3.593,3.593,0,0,0,64.793,59.579Zm-1.144,4.07h0a2.072,2.072,0,1,1,.6-1.463A2.012,2.012,0,0,1,63.649,63.649Z" transform="translate(-53.719 -53.719)"/><path class="a" d="M315.692,62.094a3.672,3.672,0,0,0,.572,1.97l-2.55,2.55a.8.8,0,0,0,0,1.144.809.809,0,0,0,1.144,0l2.558-2.55a3.685,3.685,0,0,0,4.577-.507,3.69,3.69,0,0,0-2.607-6.3,3.7,3.7,0,0,0-3.694,3.694Zm2.231-1.463a2.072,2.072,0,1,1,0,2.934h0a2.059,2.059,0,0,1-.6-1.463A2,2,0,0,1,317.923,60.631Z" transform="translate(-287.854 -53.627)"/><path class="a" d="M67.85,313.814a.8.8,0,0,0-1.144,0l-2.55,2.55a3.685,3.685,0,1,0,.638,5.721A3.693,3.693,0,0,0,65.3,317.5l2.55-2.55A.794.794,0,0,0,67.85,313.814Zm-4.2,7.127a2.068,2.068,0,1,1,0-2.926h0A2.067,2.067,0,0,1,63.649,320.941Z" transform="translate(-53.719 -287.946)"/><path class="b" d="M200.969,168.083h1.872a1.246,1.246,0,0,1,0,2.493h-3.367a.809.809,0,0,0,0,1.618H201.1v1.177a.809.809,0,0,0,1.618,0v-1.177h.131a2.865,2.865,0,1,0,0-5.729h-1.872a1.242,1.242,0,1,1,0-2.485h3.3a.809.809,0,0,0,0-1.618h-1.561v-1.152a.809.809,0,1,0-1.618,0v1.152h-.131a2.861,2.861,0,1,0,0,5.721Z" transform="translate(-181.909 -147.29)"/></g></g></svg>