<svg xmlns="http://www.w3.org/2000/svg" viewBox="36.198 2153 47.604 26.8"><defs><style>.a{fill:#333;}.b{fill:#45279f;}</style></defs><g transform="translate(36.198 2045.95)"><g transform="translate(0 107.05)"><path class="a" d="M340.6,169.416v3.663a2.615,2.615,0,0,0,.738,1.817v1.244a.962.962,0,1,0,1.924,0v-1.691a.965.965,0,0,0-.428-.8.681.681,0,0,1-.311-.573v-3.663a2.339,2.339,0,0,1,2.332-2.332h.787a2.339,2.339,0,0,1,2.332,2.332v3.663a.681.681,0,0,1-.311.573.941.941,0,0,0-.428.8v3.527a1.136,1.136,0,0,0,.632,1.011,28.077,28.077,0,0,1,5.024,3.216.813.813,0,0,1,.292.632v1.545H346.44a.962.962,0,0,0,0,1.924h7.706a.958.958,0,0,0,.962-.962v-2.507a2.715,2.715,0,0,0-1-2.118,30.675,30.675,0,0,0-4.946-3.236v-2.594a2.615,2.615,0,0,0,.738-1.817v-3.663a4.261,4.261,0,0,0-4.256-4.256h-.787A4.276,4.276,0,0,0,340.6,169.416Z" transform="translate(-307.504 -159.504)"/><path class="a" d="M.962,186.395H8.784a.962.962,0,0,0,0-1.924H1.924v-1.545a.828.828,0,0,1,.292-.632,27.15,27.15,0,0,1,5.024-3.216,1.119,1.119,0,0,0,.632-1.011V174.54a.965.965,0,0,0-.428-.8.681.681,0,0,1-.311-.573v-3.663a2.339,2.339,0,0,1,2.332-2.332h.787a2.339,2.339,0,0,1,2.332,2.332v3.663a.681.681,0,0,1-.311.573.941.941,0,0,0-.428.8v1.768a.962.962,0,1,0,1.924,0v-1.322a2.615,2.615,0,0,0,.739-1.817v-3.663a4.261,4.261,0,0,0-4.256-4.256H9.464a4.261,4.261,0,0,0-4.256,4.256v3.663a2.615,2.615,0,0,0,.739,1.817v2.594A29.6,29.6,0,0,0,1,180.817a2.746,2.746,0,0,0-1,2.118v2.5A.958.958,0,0,0,.962,186.395Z" transform="translate(0 -159.595)"/><path class="b" d="M135.12,117.01v-4.732a5.229,5.229,0,0,0-5.228-5.228h-1.02a5.229,5.229,0,0,0-5.228,5.228v4.732a3.1,3.1,0,0,0,.952,2.235v3.644a38.1,38.1,0,0,0-6.51,4.237,3.233,3.233,0,0,0-1.185,2.517v3.246a.958.958,0,0,0,.962.962h23.03a.958.958,0,0,0,.962-.962v-3.246a3.233,3.233,0,0,0-1.185-2.517,38.729,38.729,0,0,0-6.51-4.237v-3.644A3.055,3.055,0,0,0,135.12,117.01Zm4.334,11.6a1.323,1.323,0,0,1,.486,1.03v2.284H118.834v-2.284a1.323,1.323,0,0,1,.486-1.03,36.41,36.41,0,0,1,6.549-4.208,1.186,1.186,0,0,0,.661-1.049v-4.567a.965.965,0,0,0-.428-.8,1.17,1.17,0,0,1-.525-.972v-4.732a3.307,3.307,0,0,1,3.3-3.3h1.02a3.307,3.307,0,0,1,3.3,3.3v4.732a1.158,1.158,0,0,1-.525.972.941.941,0,0,0-.428.8v4.567a1.175,1.175,0,0,0,.661,1.049A37.449,37.449,0,0,1,139.453,128.612Z" transform="translate(-105.541 -107.05)"/></g></g></svg>